<?xml version="1.0" standalone="no"?>
<!DOCTYPE svg PUBLIC "-//W3C//DTD SVG 20010904//EN"
 "http://www.w3.org/TR/2001/REC-SVG-20010904/DTD/svg10.dtd">
<svg version="1.0" xmlns="http://www.w3.org/2000/svg"
 width="254.000000pt" height="172.000000pt" viewBox="0 0 254.000000 172.000000"
 preserveAspectRatio="xMidYMid meet">

<g transform="translate(0.000000,172.000000) scale(0.100000,-0.100000)"
fill="#000000" stroke="none">
<path d="M763 1623 c-27 -10 -11 -42 37 -79 65 -49 81 -86 120 -268 18 -82 39
-160 47 -173 33 -49 54 -53 312 -53 l241 0 30 28 c27 24 36 48 75 199 69 268
75 263 -293 263 -209 0 -252 -2 -262 -15 -7 -8 -10 -22 -6 -30 5 -13 42 -15
264 -15 213 0 262 -3 271 -14 10 -12 4 -48 -29 -173 -23 -87 -46 -164 -52
-170 -8 -10 -69 -13 -244 -13 -221 0 -235 1 -254 20 -11 11 -20 29 -20 40 0
18 7 20 58 21 339 3 344 3 356 22 16 26 -8 38 -77 35 -44 -2 -56 -6 -52 -17 5
-11 3 -12 -10 -1 -9 7 -49 14 -95 16 -67 2 -79 0 -83 -14 -4 -15 -5 -15 -6 1
-1 14 -11 17 -55 17 -47 0 -54 3 -60 23 -16 60 -27 57 222 57 125 0 233 4 240
9 8 5 12 17 10 27 -3 18 -18 19 -249 22 l-246 2 -17 61 c-13 46 -26 70 -60
102 -50 48 -96 76 -113 70z"/>
<path d="M1062 977 c-67 -72 34 -172 103 -102 14 13 25 36 25 50 0 35 -42 75
-78 75 -17 0 -37 -9 -50 -23z"/>
<path d="M1393 985 c-29 -20 -37 -59 -19 -94 37 -71 136 -46 136 34 0 63 -65
97 -117 60z"/>
<path d="M157 656 c-8 -21 13 -36 50 -36 l33 0 0 -109 c0 -88 3 -111 16 -122
31 -25 44 14 44 127 l0 103 38 3 c30 2 38 7 40 26 3 22 2 22 -106 22 -84 0
-111 -3 -115 -14z"/>
<path d="M485 658 c-3 -8 -4 -72 -3 -144 3 -121 4 -129 23 -129 17 0 20 8 23
58 l3 57 64 0 65 0 0 -49 c0 -49 18 -79 40 -66 6 4 10 58 10 140 0 82 -4 136
-10 140 -22 13 -40 -17 -40 -66 l0 -49 -65 0 -64 0 -3 57 c-2 46 -7 59 -21 61
-9 2 -19 -3 -22 -10z"/>
<path d="M834 657 c-2 -7 -3 -71 -2 -143 l3 -129 85 0 c78 0 85 2 85 20 0 18
-8 20 -62 23 l-63 3 0 39 0 40 55 0 c48 0 55 2 55 20 0 18 -7 20 -55 20 l-55
0 0 35 0 35 53 0 c59 0 83 11 74 34 -5 13 -22 16 -87 16 -57 0 -82 -4 -86 -13z"/>
<path d="M1258 658 c-6 -17 70 -248 87 -267 19 -20 29 -9 60 64 16 36 31 65
35 65 4 0 21 -31 38 -70 18 -40 37 -70 45 -70 10 0 29 41 57 117 49 139 54
168 25 168 -16 0 -26 -17 -52 -90 -17 -49 -33 -94 -35 -99 -2 -5 -16 24 -32
63 -17 43 -34 71 -42 71 -9 0 -29 -30 -48 -72 l-33 -72 -34 100 c-23 66 -39
100 -50 102 -10 2 -19 -3 -21 -10z"/>
<path d="M1727 663 c-12 -11 -8 -271 3 -278 6 -4 17 -1 25 5 19 16 22 249 3
268 -14 14 -22 15 -31 5z"/>
<path d="M1915 658 c-30 -16 -45 -39 -45 -68 0 -41 23 -62 91 -84 56 -18 64
-24 64 -46 0 -35 -50 -49 -96 -26 -43 21 -59 20 -59 -4 0 -27 48 -50 104 -50
60 0 100 33 100 83 0 45 -17 64 -68 77 -67 17 -86 28 -86 50 0 34 42 46 91 27
44 -17 59 -15 59 8 0 35 -109 59 -155 33z"/>
<path d="M2184 657 c-2 -7 -3 -71 -2 -143 l3 -129 83 -3 c69 -2 83 0 89 14 9
24 -14 34 -80 34 l-58 0 3 38 3 37 58 3 c49 3 58 6 55 20 -2 13 -16 18 -61 20
l-57 3 0 34 0 35 58 0 c64 0 88 10 79 34 -5 13 -22 16 -87 16 -57 0 -82 -4
-86 -13z"/>
</g>
</svg>
